<svg id="Layer_1" data-name="Layer 1" xmlns="http://www.w3.org/2000/svg" viewBox="0 0 512 512">
  <defs>
    <style>
      .cls-1 {
        fill: #b5b5be;
      }
    </style>
  </defs>
  <path class="cls-1" d="M224,80V32a32,32,0,0,1,64,0V80a32,32,0,0,1-64,0ZM352,256a96,96,0,1,1-96-96A96,96,0,0,1,352,256ZM0,256a32,32,0,0,1,32-32H80a32,32,0,0,1,0,64H32A32,32,0,0,1,0,256Zm432-32h48a32,32,0,0,1,0,64H432a32,32,0,0,1,0-64ZM256,512a32,32,0,0,1-32-32V432a32,32,0,0,1,64,0v48A32,32,0,0,1,256,512ZM73.4,438.6a32,32,0,0,1,0-45.3l32-32a32,32,0,0,1,45.3,45.3l-32,32A32,32,0,0,1,73.4,438.6Zm288-333.3,32-32a32,32,0,0,1,45.3,45.3l-32,32a32,32,0,1,1-45.3-45.3Zm77.3,333.3a32,32,0,0,1-45.3,0l-32-32a32,32,0,0,1,45.3-45.3l32,32A32,32,0,0,1,438.7,438.6Zm-333.3-288-32-32a32,32,0,0,1,45.3-45.3l32,32a32,32,0,0,1-45.3,45.3Z"/>
</svg>
