<svg id="Layer_2" data-name="Layer 2" xmlns="http://www.w3.org/2000/svg" xmlns:xlink="http://www.w3.org/1999/xlink" viewBox="0 0 800 249.03">
  <defs>
    <style>
      .cls-1 {
        fill: url(#linear-gradient);
      }

      .cls-2 {
        fill: url(#linear-gradient-2);
      }

      .cls-3 {
        fill: url(#linear-gradient-3);
      }

      .cls-4 {
        fill: url(#linear-gradient-4);
      }

      .cls-5 {
        fill: url(#linear-gradient-5);
      }

      .cls-6 {
        fill: url(#linear-gradient-6);
      }

      .cls-7 {
        fill: url(#linear-gradient-7);
      }

      .cls-8 {
        fill: url(#linear-gradient-8);
      }

      .cls-9 {
        fill: url(#linear-gradient-9);
      }

      .cls-10 {
        fill: url(#linear-gradient-10);
      }
    </style>
    <linearGradient id="linear-gradient" x1="254.36" y1="152" x2="413.23" y2="152" gradientUnits="userSpaceOnUse">
      <stop offset="0" stop-color="#4800f9"/>
      <stop offset="1" stop-color="#9500f3"/>
    </linearGradient>
    <linearGradient id="linear-gradient-2" x1="566.02" y1="165.99" x2="747.62" y2="165.99" xlink:href="#linear-gradient"/>
    <linearGradient id="linear-gradient-3" x1="39.37" y1="185.82" x2="129.06" y2="185.82" xlink:href="#linear-gradient"/>
    <linearGradient id="linear-gradient-4" x1="7.32" y1="251.33" x2="11.41" y2="251.33" xlink:href="#linear-gradient"/>
    <linearGradient id="linear-gradient-5" x1="14.36" y1="136.76" x2="787.17" y2="136.76" xlink:href="#linear-gradient"/>
    <linearGradient id="linear-gradient-6" x1="788.92" y1="21.48" x2="792.8" y2="21.48" xlink:href="#linear-gradient"/>
    <linearGradient id="linear-gradient-7" x1="1.18" y1="240.83" x2="15.22" y2="240.83" xlink:href="#linear-gradient"/>
    <linearGradient id="linear-gradient-8" x1="0" y1="252.63" x2="16.41" y2="252.63" xlink:href="#linear-gradient"/>
    <linearGradient id="linear-gradient-9" x1="784.78" y1="8.2" x2="798.82" y2="8.2" xlink:href="#linear-gradient"/>
    <linearGradient id="linear-gradient-10" x1="783.59" y1="20" x2="800" y2="20" xlink:href="#linear-gradient"/>
  </defs>
  <g>
    <path class="cls-1" d="M413.21,208.64v0c0-.18,0-.37-.07-.57V208c0-.18-.07-.36-.11-.55a.59.59,0,0,0,0-.13c-.05-.2-.1-.4-.16-.61a15,15,0,0,0-.49-1.42,22.19,22.19,0,0,0-2.06-3.86c-2.4-3.65-7.39-9.31-17.44-15.49l-21.77-13.38-.65-16.5,3.91,2.4,1.76,1.09a1.11,1.11,0,0,0,1.53-.37l2.77-4.5.6-1a.72.72,0,0,0,.09-.2.83.83,0,0,0,.06-.21,1.12,1.12,0,0,0-.52-1.11L378.87,151,370,145.6l-.47-12,4,2.48,1.76,1.08a1.12,1.12,0,0,0,.63.16h.11a1.1,1.1,0,0,0,.79-.51l3.37-5.49a1.13,1.13,0,0,0,.11-.91.14.14,0,0,1,0-.06.8.8,0,0,0-.08-.16,1,1,0,0,0-.38-.39l-1.5-.92-.26-.16-9-5.51-.58-14.45L367.4,79.64a1.12,1.12,0,0,0-.15-.51,1.09,1.09,0,0,0-.38-.39L358,73.31a1.14,1.14,0,0,0-.66-.16h0a1,1,0,0,0-.38.11,1.1,1.1,0,0,0-.38.29l-.09.13a.8.8,0,0,0-.08.16.89.89,0,0,0-.07.28l-8.91,70.27v0a.5.5,0,0,1,0,.13l-6,9.74L311.9,136.14c-4.09-2.52-14.65-6.22-23.29-8.77-1.08-.32-2.14-.63-3.17-.91l-.57-11.29-.29-5.72a4.82,4.82,0,0,0-.76-2.38l-.1-.14a4.84,4.84,0,0,0-1.44-1.37l-4.09-2.51a1.08,1.08,0,0,0-.62-.17h-.13a1.29,1.29,0,0,0-.26.08,1,1,0,0,0-.22.13,1.06,1.06,0,0,0-.2.17l-.1.14a1.2,1.2,0,0,0-.13.33l-4.68,19.8h-.33l-4-2-3.89-2a.6.6,0,0,0-.49,0,.51.51,0,0,0-.25.21.45.45,0,0,0-.07.28h0a.6.6,0,0,0,.24.45l7.2,5.32.12.22-15.59,13.14a1.18,1.18,0,0,0-.23.27,1,1,0,0,0-.1.24,1,1,0,0,0-.06.42,2,2,0,0,0,0,.26,1.15,1.15,0,0,0,.48.61l4.09,2.51a4.84,4.84,0,0,0,4.51.3l5-2.23,10.75-4.78c.91,1,1.85,2,2.85,3,2.25,2.36,4.72,4.84,7.1,7.16l.78.76.63.6.31.3c1.14,1.09,2.24,2.11,3.26,3l.54.48c.92.83,1.77,1.57,2.53,2.19l.37.3c.46.38.89.71,1.27,1a.91.91,0,0,0,.16.11l.4.27.08.05.1.07,29.51,18.14-5.76,9.36a.18.18,0,0,1-.05.07l-.06.05-36.17,24.46-22.5,15.22a1.33,1.33,0,0,0-.33.34,1.15,1.15,0,0,0-.16.6h0a1.13,1.13,0,0,0,.53.93l8.83,5.42a1.19,1.19,0,0,0,.5.17h.15l.13,0a1.38,1.38,0,0,0,.27-.08l38.94-17.81,9.34,5.74,1.77,1.08a1.14,1.14,0,0,0,.73.16l.21,0,.1,0a1.16,1.16,0,0,0,.48-.43l3.37-5.48a1.08,1.08,0,0,0,.11-.92.14.14,0,0,0,0-.06,1.19,1.19,0,0,0-.13-.25.27.27,0,0,0-.07-.08.88.88,0,0,0-.25-.22l-1.77-1.08-4.4-2.71,10.89-5,9.23,5.67,1.77,1.09.18.09.2.05h0a1.1,1.1,0,0,0,1.08-.49l0,0,1.69-2.74,1.68-2.74a1.11,1.11,0,0,0-.19-1.39,1.09,1.09,0,0,0-.17-.13l-1.77-1.09-4.29-2.64,12.4-5.67,2.87-1.31,9,5.53,13,8c1.34.82,2.62,1.57,3.86,2.24l1.34.72.28.15,1.47.73.09,0a46,46,0,0,0,14.66,4.68c.78.09,1.54.14,2.26.16H405c.43,0,.85,0,1.25,0l.39,0,.77-.08.37-.06c2.3-.38,4-1.27,4.8-2.59A5.07,5.07,0,0,0,413.21,208.64Z" transform="translate(0 -11.8)"/>
    <path class="cls-2" d="M746.23,81.52a6.24,6.24,0,0,0-4.1-1.87l-.66-.07-.7,0c-.23,0-.48,0-.73,0a23.68,23.68,0,0,0-3.75.44h0l-1.32.27c-.53.13-1.07.26-1.63.42l-.28.07c-.57.16-1.15.33-1.74.52l-.23.07-1.72.58-1.09.4c-1,.38-2.1.81-3.19,1.26l-1.3.56-1,.46L722,85c-.51.24-1,.48-1.56.74-2.47,1.19-5,2.53-7.55,4l-1.5.88h-.08l0,0-1.23.75c-1.07.66-2.12,1.32-3.12,2-1.2.79-2.34,1.59-3.44,2.38-2.12,1.45-4.43,3.06-6.85,4.76l-.73.52-2,1.38-.79.56L690,105.27l-1.36,1-.54.39-1.1.79c-.37.26-.74.52-1.1.79l-.83.59-6.65,4.78L676,115.26l-1.18.84L669,120.3c-4.35,3.12-8.66,6.18-12.67,9l-.59.41-.87.61-3.48,2.38-1.35.91c-1.08.73-2.12,1.42-3.11,2.06-.83.54-1.62,1.06-2.38,1.53-1.21.77-2.32,1.45-3.33,2a27.18,27.18,0,0,1-4.16,2.1,18.22,18.22,0,0,1-2.75.72l-1,.15-1,.11c-.66.06-1.33.09-2,.11h-2.11c-2.53-.08-5.27-.35-8.28-.66-2.34-.23-4.92-.49-7.66-.68-.69,0-1.38-.09-2.09-.12l-3.41-.19-2.64-.16-1.62-.08-1.1-.05c-.92,0-1.85-.07-2.8-.08l-1.13,0h-1.72l-1.15,0q-.87,0-1.74.06l-1.75.1-1.17.1-1.17.12-1.17.15-1.18.17a38.17,38.17,0,0,0-16,6.14h0l-4.32,3.84a.41.41,0,0,0,0,.56l30.23,34-5.19,4.62a.39.39,0,0,0,0,.55l1.57,1.77-3.55,1.8-.07,0h0s0,0,0,0l0,0h0a.47.47,0,0,0-.06.15.54.54,0,0,0,0,.18.51.51,0,0,0,.09.16l10.71,12a.4.4,0,0,0,.32.13h0a.4.4,0,0,0,.3-.17h0l2.2-3.33,1.31,1.47-3.48,3.09a78.15,78.15,0,0,0-6.92,7.87l-.15.19-.59.75-.14.18c-.14.17-.26.33-.38.49l-.78,1-.13.17-.1.13-.11.15a.37.37,0,0,0-.08.26.39.39,0,0,0,.4.37h.07l.1,0h0c.36-.21,8.8-5.19,11.93-8L607,208.6l1.31,1.47-3.55,1.8,0,0a.4.4,0,0,0-.13.13.5.5,0,0,0-.05.13.32.32,0,0,0,0,.17.35.35,0,0,0,.08.16l10.71,12a.42.42,0,0,0,.16.11.3.3,0,0,0,.16,0h.09a.42.42,0,0,0,.21-.16l2.2-3.33,1.57,1.77a.38.38,0,0,0,.55,0l5.19-4.62,30.23,34a.41.41,0,0,0,.56,0l4.31-3.84,0,0h0a33.53,33.53,0,0,0,2.37-3h0a35.59,35.59,0,0,0,2-3.18c.3-.54.58-1.08.85-1.63,3.82-7.82,4.75-16.47,5.24-24.17l0-.25c0-.64.08-1.27.11-1.89l0-.24c0-.27,0-.54,0-.8v-.12c.07-1.19.13-2.31.2-3.42.19-2.86.26-5.59.31-8.08,0-.57,0-1.14,0-1.68,0-1.3,0-2.55.07-3.75l0-1.07a1.93,1.93,0,0,0,0-.24c.18-4.62.65-8.51,2.29-11.87,2.1-4.3,13-16.62,24.56-29.3l7.34-8.05.42-.46,4.14-4.54,2.75-3,2.71-3,2-2.21.65-.72,3-3.4.81-.9,2.65-3,1.08-1.23.49-.57.29-.33.49-.53c1.83-2,3.68-4.24,5.5-6.61l0,0v0l0,0v0l.56-.72.49-.66c.37-.49.72-1,1.08-1.47l0,0c.55-.76,1.08-1.51,1.6-2.26l1-1.46c.66-1,1.29-2,1.89-2.95.78-1.26,1.51-2.51,2.19-3.74.24-.42.47-.84.69-1.25.74-1.39,1.41-2.74,2-4,.2-.43.39-.86.56-1.28.54-1.26,1-2.47,1.34-3.61h0c.09-.3.18-.59.26-.87a24.27,24.27,0,0,0,.55-2.43c0-.22.07-.44.1-.65s0-.3,0-.45l0-.35c0-.23,0-.46,0-.68v-.33a9.65,9.65,0,0,0-.08-1.23A5.64,5.64,0,0,0,746.23,81.52Z" transform="translate(0 -11.8)"/>
    <path class="cls-3" d="M129.06,150.4h0v0h0v-.06h0v0h0l0,0h0l0,0h-.3l-82,18.86a.35.35,0,0,0-.23.16L39.43,180a.35.35,0,0,0,0,.3.39.39,0,0,0,.19.23l20.31,9.15h0l.06,0h.1L71,189l-4.84,9.78h0a.14.14,0,0,0,0,.06v0a.15.15,0,0,0,0,.07h0l.67,22.27a.37.37,0,0,0,.13.27.38.38,0,0,0,.29.07l12.72-2.22.14-.05.1-.09L129,150.64h0v0h0v0h0v-.09h0Z" transform="translate(0 -11.8)"/>
    <g>
      <g>
        <path class="cls-4" d="M9.09,253.42l-1.77-1.58,2.33-2.6,1.76,1.59C10.63,251.69,9.85,252.56,9.09,253.42Z" transform="translate(0 -11.8)"/>
        <path class="cls-5" d="M16.1,245.66l-1.74-1.6c1.58-1.73,3.19-3.45,4.76-5.14l1.73,1.62C19.28,242.22,17.68,243.94,16.1,245.66Zm9.55-10.19-1.71-1.64c1.61-1.69,3.25-3.39,4.86-5l1.7,1.65C28.89,232.09,27.26,233.78,25.65,235.47Zm465.85-2.65,0-2.37c2.3,0,4.63-.07,6.94-.17l.1,2.36C496.19,232.74,493.83,232.8,491.5,232.82Zm-7-.06c-1.79,0-3.6-.11-5.38-.2l-1.65-.1.15-2.36,1.62.09c1.76.09,3.55.16,5.32.21Zm21.07-.53-.18-2.36c2.29-.18,4.62-.39,6.92-.64l.25,2.35C510.21,231.83,507.86,232.05,505.54,232.23Zm-35.12-.38c-2.33-.26-4.68-.58-7-.95l.37-2.34c2.26.36,4.57.68,6.86.94Zm49.11-1.15-.33-2.34c2.28-.32,4.59-.69,6.88-1.09l.41,2.33C524.17,230,521.83,230.38,519.53,230.7Zm-63-1.1c-2.28-.49-4.59-1-6.85-1.65l.62-2.29c2.22.59,4.48,1.14,6.72,1.62Zm76.87-1.31-.48-2.32c2.26-.47,4.54-1,6.8-1.51l.55,2.3C538,227.3,535.68,227.82,533.4,228.29ZM442.93,226c-2.21-.7-4.44-1.48-6.65-2.31l.83-2.21c2.17.81,4.37,1.57,6.55,2.27ZM35.4,225.47l-1.68-1.67c1.66-1.66,3.33-3.32,5-4.94l1.66,1.7C38.72,222.16,37.05,223.82,35.4,225.47ZM547.08,225l-.61-2.28c2.22-.6,4.47-1.24,6.69-1.91l.68,2.27C551.6,223.78,549.32,224.43,547.08,225Zm-117.33-4c-2.12-.91-4.27-1.89-6.4-2.91l1-2.13c2.1,1,4.22,2,6.31,2.86Zm130.79,0-.74-2.25c2.18-.72,4.39-1.48,6.58-2.27l.8,2.23C565,219.51,562.74,220.28,560.54,221Zm13.22-4.75L572.9,214c2.14-.83,4.31-1.71,6.46-2.61l.91,2.19C578.11,214.52,575.92,215.41,573.76,216.25ZM45.37,215.7,43.73,214c1.7-1.62,3.41-3.24,5.1-4.82l1.61,1.73C48.76,212.47,47.06,214.08,45.37,215.7Zm371.7-.73c-2-1.07-4.09-2.21-6.15-3.39l1.19-2.05c2,1.17,4.07,2.29,6.06,3.35Zm169.65-4.14-1-2.16c2.1-.94,4.23-1.92,6.33-2.92l1,2.14C591,208.89,588.83,209.88,586.72,210.83ZM404.9,208c-1.93-1.2-3.92-2.47-5.92-3.78l1.3-2c2,1.3,4,2.56,5.86,3.74ZM55.58,206.17,54,204.42c1.73-1.57,3.49-3.15,5.22-4.68l1.57,1.77C59,203,57.3,204.61,55.58,206.17ZM599.4,204.8l-1.06-2.11c2-1,4.14-2.12,6.19-3.21l1.11,2.09C603.57,202.67,601.47,203.76,599.4,204.8Zm-206.24-4.51c-1.85-1.28-3.77-2.64-5.73-4l1.38-1.92c1.95,1.4,3.86,2.75,5.7,4Zm218.66-2.08-1.16-2.06c2-1.12,4.05-2.29,6.07-3.47l1.19,2C615.9,195.91,613.84,197.09,611.82,198.21ZM66,196.92l-1.54-1.8c1.77-1.52,3.57-3.05,5.34-4.53l1.52,1.81C69.58,193.88,67.79,195.4,66,196.92Zm315.75-4.83c-1.78-1.32-3.61-2.7-5.61-4.21L377.6,186c2,1.51,3.81,2.89,5.58,4.2Zm242.19-1-1.23-2c2-1.21,4-2.45,5.93-3.71l1.27,2C628,188.65,625.94,189.91,624,191.12ZM76.71,188l-1.49-1.84c1.82-1.48,3.66-2.95,5.47-4.37l1.47,1.86C80.35,185.05,78.52,186.51,76.71,188Zm293.89-4.37-5.54-4.28,1.45-1.87,5.54,4.28Zm265.22,0-1.31-2c1.92-1.27,3.86-2.58,5.77-3.9l1.35,1.95C639.7,181,637.75,182.29,635.82,183.57ZM87.67,179.38l-1.43-1.89c1.86-1.41,3.75-2.82,5.61-4.19l1.4,1.91C91.4,176.57,89.52,178,87.67,179.38Zm559.7-3.77L646,173.68c1.87-1.34,3.77-2.72,5.64-4.1l1.41,1.91C651.17,172.88,649.26,174.26,647.37,175.61ZM359.53,175,354,170.77l1.44-1.88c1.66,1.27,3.42,2.63,5.55,4.28ZM98.91,171.15l-1.36-1.94c1.91-1.35,3.85-2.69,5.76-4l1.33,2C102.74,168.47,100.81,169.8,98.91,171.15Zm559.74-3.88-1.43-1.88c1.83-1.4,3.68-2.84,5.51-4.28L664.2,163C662.36,164.42,660.5,165.87,658.65,167.27Zm-310.23-.72c-2-1.48-3.8-2.84-5.61-4.16l1.4-1.91c1.81,1.33,3.66,2.69,5.63,4.18Zm-238-3.22-1.29-2c2-1.28,4-2.54,5.93-3.76l1.25,2C114.39,160.8,112.41,162.06,110.45,163.33Zm559.22-4.74-1.49-1.84c1.78-1.45,3.6-2.94,5.38-4.44l1.52,1.82C673.29,155.63,671.47,157.13,669.67,158.59Zm-332.53-.26c-1.95-1.38-3.88-2.71-5.74-4l1.33-2c1.87,1.25,3.81,2.6,5.78,4ZM122.3,156l-1.2-2c2-1.2,4.07-2.38,6.08-3.51l1.16,2.07C126.34,153.62,124.31,154.79,122.3,156Zm203.27-5.43c-2-1.27-4-2.51-5.92-3.67l1.21-2c2,1.17,4,2.42,6,3.7Zm354.86-1-1.55-1.79c1.75-1.5,3.52-3.05,5.26-4.59l1.57,1.77C684,146.53,682.18,148.08,680.43,149.59Zm-546-.44-1.11-2.09c2.07-1.1,4.18-2.18,6.25-3.22l1.06,2.12C138.6,147,136.52,148.06,134.46,149.15Zm179.15-5.75c-2-1.14-4.1-2.24-6.12-3.28l1.08-2.1c2,1,4.13,2.15,6.2,3.31Zm-166.68-.48-1-2.14c2.13-1,4.28-2,6.41-2.9l.94,2.18C151.18,141,149,141.94,146.93,142.92Zm544-2.62-1.59-1.75c1.71-1.55,3.44-3.14,5.14-4.73l1.61,1.73C694.38,137.15,692.65,138.74,690.93,140.3Zm-531.22-2.94-.89-2.2c2.18-.87,4.39-1.72,6.56-2.53l.82,2.22C164.05,135.65,161.86,136.49,159.71,137.36Zm141.54-.28c-2.11-1-4.24-1.92-6.35-2.79l.91-2.19c2.14.89,4.3,1.84,6.44,2.83Zm-128.48-4.54L172,130.3c2.23-.75,4.48-1.46,6.7-2.13l.68,2.27C177.2,131.1,175,131.81,172.77,132.54Zm115.67-.78c-2.17-.8-4.37-1.55-6.55-2.25l.71-2.25c2.22.7,4.46,1.47,6.66,2.28Zm412.75-1L699.55,129c1.68-1.6,3.37-3.23,5-4.86l1.66,1.7C704.57,127.49,702.87,129.13,701.19,130.74Zm-515.1-2.19-.6-2.29c2.27-.59,4.56-1.16,6.82-1.67l.53,2.31C190.61,127.4,188.34,128,186.09,128.55Zm89.15-1c-2.22-.59-4.49-1.15-6.73-1.64l.51-2.31c2.28.5,4.58,1.06,6.83,1.67Zm-75.6-2.09-.45-2.32c2.3-.44,4.63-.84,6.92-1.19l.36,2.34C204.21,124.64,201.91,125,199.64,125.47Zm62.07-.89c-2.26-.39-4.56-.74-6.85-1l.3-2.35c2.32.3,4.67.65,7,1Zm-48.37-1.2-.27-2.36c2.32-.26,4.67-.49,7-.66l.17,2.36C218,122.89,215.63,123.11,213.34,123.38Zm34.62-.56c-2.29-.2-4.62-.35-6.93-.45l.11-2.36c2.33.1,4.7.25,7,.45Zm-20.81-.49-.09-2.37c2.34-.08,4.71-.12,7-.12v2.37C231.79,122.2,229.46,122.24,227.15,122.33Zm484.06-1.4-1.68-1.67c1.64-1.64,3.29-3.31,4.91-5l1.69,1.66C714.51,117.61,712.85,119.29,711.21,120.93Zm9.79-10-1.72-1.64c1.59-1.67,3.2-3.38,4.79-5.08l1.73,1.61C724.21,107.49,722.59,109.21,721,110.89Zm9.55-10.26L728.8,99c1.55-1.7,3.13-3.45,4.68-5.19l1.77,1.58C733.69,97.17,732.11,98.92,730.55,100.63Zm9.34-10.47L738.1,88.6c1.52-1.74,3.06-3.51,4.57-5.29l1.8,1.54C743,86.63,741.41,88.42,739.89,90.16ZM749,79.5,747.18,78c1.49-1.78,3-3.59,4.46-5.38l1.83,1.5C752,75.9,750.49,77.71,749,79.5Zm8.89-10.85L756,67.17c1.45-1.81,2.91-3.65,4.35-5.48l1.86,1.47C760.81,65,759.34,66.84,757.89,68.65Zm8.66-11-1.88-1.45c1.42-1.84,2.85-3.71,4.24-5.56L770.8,52C769.4,53.89,768,55.77,766.55,57.62ZM775,46.4,773.08,45c1.39-1.89,2.77-3.79,4.11-5.66l1.92,1.39C777.77,42.59,776.38,44.5,775,46.4ZM783.18,35l-1.95-1.36c1.37-1.95,2.71-3.89,4-5.76l2,1.33C785.89,31.07,784.55,33,783.18,35Z" transform="translate(0 -11.8)"/>
        <path class="cls-6" d="M790.9,23.58l-2-1.29c1.22-1.87,1.86-2.9,1.87-2.91l2,1.25S792.14,21.69,790.9,23.58Z" transform="translate(0 -11.8)"/>
      </g>
      <g>
        <circle class="cls-7" cx="8.2" cy="240.83" r="7.02"/>
        <path class="cls-8" d="M8.2,260.83a8.21,8.21,0,1,1,8.21-8.2A8.21,8.21,0,0,1,8.2,260.83Zm0-14A5.84,5.84,0,1,0,14,252.63,5.84,5.84,0,0,0,8.2,246.79Z" transform="translate(0 -11.8)"/>
      </g>
      <g>
        <circle class="cls-9" cx="791.8" cy="8.2" r="7.02"/>
        <path class="cls-10" d="M791.8,28.21A8.21,8.21,0,1,1,800,20,8.22,8.22,0,0,1,791.8,28.21Zm0-14A5.84,5.84,0,1,0,797.63,20,5.84,5.84,0,0,0,791.8,14.17Z" transform="translate(0 -11.8)"/>
      </g>
    </g>
  </g>
</svg>
