<svg xmlns="http://www.w3.org/2000/svg" width="40" height="40" viewBox="0 0 40 40">
  <g id="walletconnect" transform="translate(-2 -2)">
    <g id="_2806050136896" transform="translate(2 2)">
      <circle id="Ellipse_148" data-name="Ellipse 148" cx="20" cy="20" r="20" fill="#3396ff"/>
      <path id="Path_1614" data-name="Path 1614" d="M433.572,737.353a11.055,11.055,0,0,1,15.358,0l.507.491a.526.526,0,0,1,0,.745l-1.744,1.7a.259.259,0,0,1-.38,0l-.7-.682a7.714,7.714,0,0,0-10.714,0l-.745.729a.259.259,0,0,1-.38,0l-1.744-1.7a.526.526,0,0,1,0-.745l.555-.539Zm18.956,3.519,1.553,1.522a.526.526,0,0,1,0,.745l-7.006,6.831a.545.545,0,0,1-.761,0l-4.977-4.85a.145.145,0,0,0-.19,0l-4.977,4.85a.545.545,0,0,1-.761,0l-7.006-6.831a.526.526,0,0,1,0-.745l1.553-1.522a.545.545,0,0,1,.761,0l4.977,4.85a.145.145,0,0,0,.19,0l4.977-4.85a.545.545,0,0,1,.761,0l4.977,4.85a.145.145,0,0,0,.19,0l4.977-4.85a.545.545,0,0,1,.761,0Z" transform="translate(-421.494 -722.644)" fill="#fff"/>
    </g>
  </g>
</svg>
